<mxfile host="app.diagrams.net" modified="2024-05-18T14:29:12.883Z" agent="Mozilla/5.0 (Windows NT 10.0; Win64; x64) AppleWebKit/537.36 (KHTML, like Gecko) Chrome/124.0.0.0 Safari/537.36" version="24.4.4" etag="uJVpI6X-xBSJm3jHApBL" type="github">
  <diagram name="Page-1" id="VI2EMX1AE3BmZTU6xW97">
    <mxGraphModel>
      <root>
        <mxCell id="0" />
        <mxCell id="1" parent="0" />
      </root>
    </mxGraphModel>
  </diagram>
</mxfile>
